<?xml version="1.0" encoding="UTF-8" standalone="no"?>
<!-- Created with Inkscape (http://www.inkscape.org/) -->

<svg
   width="575"
   height="575"
   viewBox="0 0 152.13542 152.13542"
   version="1.1"
   id="svg5"
   xml:space="preserve"
   xmlns:xlink="http://www.w3.org/1999/xlink"
   xmlns="http://www.w3.org/2000/svg"
   xmlns:svg="http://www.w3.org/2000/svg"><defs
     id="defs2"><linearGradient
       id="linearGradient21644"><stop
         style="stop-color:#ffffff;stop-opacity:1;"
         offset="0"
         id="stop21640" /><stop
         style="stop-color:#ebebeb;stop-opacity:1;"
         offset="1"
         id="stop21642" /></linearGradient><linearGradient
       id="linearGradient20778"><stop
         style="stop-color:#55bed1;stop-opacity:1;"
         offset="0"
         id="stop20774" /><stop
         style="stop-color:#1d76b4;stop-opacity:1;"
         offset="1"
         id="stop20776" /></linearGradient><linearGradient
       id="linearGradient11145"><stop
         style="stop-color:#000000;stop-opacity:1;"
         offset="0"
         id="stop11141" /><stop
         style="stop-color:#000000;stop-opacity:0;"
         offset="1"
         id="stop11143" /></linearGradient><linearGradient
       id="linearGradient11137"><stop
         style="stop-color:#000000;stop-opacity:1;"
         offset="0"
         id="stop11135" /></linearGradient><filter
       style="color-interpolation-filters:sRGB"
       id="filter20770"
       x="-0.066241495"
       y="-0.062523216"
       width="1.132483"
       height="1.1250464"><feGaussianBlur
         stdDeviation="3.7221481"
         id="feGaussianBlur20772" /></filter><linearGradient
       xlink:href="#linearGradient20778"
       id="linearGradient20780"
       x1="93.504593"
       y1="42.023624"
       x2="40.484436"
       y2="120.4033"
       gradientUnits="userSpaceOnUse" /><linearGradient
       xlink:href="#linearGradient21644"
       id="linearGradient21646"
       x1="86.516647"
       y1="70.014153"
       x2="57.963848"
       y2="104.72038"
       gradientUnits="userSpaceOnUse" /></defs><g
     id="layer1"><path
       id="path418-0"
       style="mix-blend-mode:normal;fill:#e5e5e5;fill-opacity:1;stroke:#000000;stroke-width:0;stroke-linecap:butt;stroke-linejoin:miter;stroke-miterlimit:4;stroke-dasharray:none;stroke-dashoffset:0;stroke-opacity:0;paint-order:stroke fill markers"
       d="m 77.179688,6.4394531 c -3.316024,0 -6.620797,0.8586891 -9.582032,2.5683594 L 24.0625,34.144531 c -5.938863,3.428803 -9.583984,9.736154 -9.583984,16.597657 v 50.269532 c 0,6.8615 3.646094,13.16941 9.583984,16.59766 l 4.140625,2.39257 c -0.776619,1.20164 -0.227411,0.3743 -1.15625,1.8086 l -11.390625,17.58984 20.839844,-2.21094 c 11.730749,-1.24448 15.686491,-1.44791 18.761718,-1.56836 l 12.339844,7.125 c 5.940498,3.42974 13.22525,3.42989 19.166016,0 l 43.535158,-25.13671 c 5.94058,-3.42981 9.58203,-9.74016 9.58203,-16.59766 V 50.742188 c 0,-6.857506 -3.64169,-13.167993 -9.58203,-16.597657 L 86.763672,9.0078125 C 83.802239,7.298028 80.492338,6.4394531 77.179688,6.4394531 Z M 37.265625,105.83203 c 0.0045,0.0153 -2.035193,3.16735 -2.28125,3.56836 l 0.08398,-0.25586 0.105469,-0.28125 c 0,0 2.071811,-3.09963 2.091797,-3.03125 z m 21.882813,29.5332 c 1.53283,0.058 1.03125,0.31641 1.03125,0.31641 0.318251,0.0241 -0.839844,-0.24414 -0.839844,-0.24414 z" /><path
       id="path418-0-2"
       style="mix-blend-mode:normal;fill:#ffffff;fill-opacity:0.813397;stroke:#000000;stroke-width:0;stroke-linecap:butt;stroke-linejoin:miter;stroke-miterlimit:4;stroke-dasharray:none;stroke-dashoffset:0;stroke-opacity:0;paint-order:stroke fill markers;filter:url(#filter20770)"
       d="m 77.179688,4.4394531 c -3.652834,0 -7.305148,0.9420744 -10.582032,2.8339844 L 23.060547,32.410156 C 16.498991,36.198473 12.478516,43.166139 12.478516,50.740234 v 50.269536 c 0,7.57409 4.020928,14.54201 10.582031,18.33007 l 4.451172,2.57032 -20.4882815,24.35546 35.9433595,-8.98437 c 3.150719,-0.78767 5.527594,-1.44376 8.185547,-2.14844 1.325329,1.03071 2.693266,1.9814 4.082031,2.78321 l 11.363281,6.56054 c 6.559362,3.78706 14.60461,3.78711 21.164063,0 l 43.537111,-25.13672 c 6.56154,-3.78832 10.58203,-10.75597 10.58203,-18.33007 V 50.740234 c 0,-7.574108 -4.02058,-14.541813 -10.58203,-18.330078 L 87.761719,7.2734375 C 84.484934,5.3815843 80.832522,4.4394531 77.179688,4.4394531 Z" /><path
       id="path418"
       style="mix-blend-mode:normal;fill:url(#linearGradient20780);fill-opacity:1;stroke:#000000;stroke-width:0;stroke-linecap:butt;stroke-linejoin:miter;stroke-miterlimit:4;stroke-dasharray:none;stroke-dashoffset:0;stroke-opacity:0;paint-order:stroke fill markers"
       d="m 72.592743,134.05729 -11.983717,-6.89023 c -0.594101,-0.34159 -1.624228,-0.53037 -2.300857,-0.42168 -28.304898,4.54657 0.832198,-0.17916 -29.177429,4.68053 14.447517,-18.13945 7.306402,-8.8998 12.293372,-15.37477 l -12.36246,-7.13747 a 9.1654345,9.1654345 59.999995 0 1 -4.582718,-7.9375 l -2e-6,-50.270829 a 9.1654355,9.1654355 120 0 1 4.582718,-7.9375 L 72.597468,17.632422 a 9.1654355,9.1654355 180 0 1 9.165436,0 l 43.535816,25.135416 a 9.1654354,9.1654354 60 0 1 4.58272,7.9375 v 50.270832 a 9.1654354,9.1654354 120 0 1 -4.58272,7.9375 l -43.535813,25.13542 a 9.1844078,9.1844078 179.94873 0 1 -9.170164,0.008 z" /><path
       style="opacity:1;fill:url(#linearGradient21646);fill-opacity:1;stroke-width:0.285608"
       d="M 89.379562,104.54806 C 85.364573,103.70413 79.500421,101.59821 75.112456,99.424477 66.468005,95.142165 58.704321,87.789422 51.533819,77.093883 47.229696,70.673829 45.712953,66.543478 45.730645,61.290885 c 0.0163,-4.843304 1.508971,-8.558407 4.904456,-12.206896 1.878503,-2.018478 3.045652,-2.488195 6.19844,-2.494575 3.029584,-0.0065 4.072022,0.462172 4.976882,2.235838 1.288199,2.525092 5.447814,12.94499 5.447814,13.646868 0,1.179929 -1.092708,3.084566 -3.20308,5.583114 -1.065819,1.261871 -1.937864,2.488454 -1.937864,2.725753 0,0.637002 1.768658,3.436331 3.970137,6.283707 2.481783,3.209925 5.939477,6.455515 9.202986,8.638438 3.090094,2.066924 8.231535,4.576968 9.375248,4.576968 0.875391,0 2.008914,-1.152597 5.544512,-5.637778 1.876064,-2.379936 2.483846,-2.645031 4.407406,-1.922373 3.447137,1.295043 13.439898,6.375494 13.776288,7.004033 0.48159,0.899841 0.19631,4.167668 -0.5846,6.696689 -0.83236,2.695609 -3.29845,5.199979 -6.85681,6.963209 -3.677498,1.82227 -6.899847,2.14642 -11.572898,1.16418 z"
       id="path21578" /></g></svg>
